<svg version="1.1" id="svg2811" xmlns="http://www.w3.org/2000/svg" x="0" y="0" viewBox="0 0 2000 1319.4" style="enable-background:new 0 0 2000 1319.4" xml:space="preserve"><style>.st0{fill:#cc071e}</style><g id="layer1" transform="translate(-4397.099 -577.112)"><g id="g45263" transform="translate(10.63 8.864)"><path id="path45125" class="st0" d="M5792 608.3c72.6-35.7 108.6-31 109.5 5.2 1 47-6 109.5-11 154.7-27 245.7-72 446.4-75.4 698.7 118.7-307.2 218.1-520.7 346.3-783.6 40.7-83.8 66.7-68.1 100.1-83 130.1-58 135-22.4 118 48.4-63.1 262.5-224.7 1089-249.4 1216.2-7.1 36.8-47.1 21.2-57.5 6.8-46.3-64.1-98.6-65.1-92.8-107.7 29.1-212.2 133.7-744.5 161-870-139 285-283.2 641.2-357.3 843.2-15.7 42.9-44.2 39.7-62 8.4-25-44.1-73.6-66.6-81.7-118.7-25.3-165.6 29.1-481.3 36.6-681.1-75.7 218.2-202.8 641.8-258.5 833.2-22.9 79.2-99.4 66.3-79.1-10.9 84.6-321.2 266.9-889.2 345.6-1093.4 18.6-48.2 67.2-46.6 107.6-66.4"/><path id="path45127" class="st0" d="M5330.6 568.9c-24.5-6-95.7 32.4-139.5 40-13.9 2.4-27.1 17.1-31.8 27.6-70.1 161-132.9 314.4-187.3 454.1-69.6 11.9-150.9 27.5-242 48 65.2-167.3 131.1-332.3 195.3-491 31.6-78.1-51.7-85.6-83.9-6.5-42 102.8-120.6 295.5-207.6 520.1-63.9 15.7-131.7 33.6-202.6 54.1-51.5 14.9-53.6 28.6-31.3 59.5 12.3 17.2 37.6 15.5 49.2 27.7 30 31.8 48.3 69.7 102 75.5-47.9 128.3-95.9 260.5-139.3 387.9-27.3 79.9 50.4 96.3 80.2 11.7 48.1-136.4 98.8-274.4 150.9-412 43.4-10.1 148.5-32.7 245.5-53.8-77 211.1-127.7 371.4-146.9 449.4-3.5 15 2.4 23.3 5.6 29.5 26 37.8 50.7 39.4 84.1 86.1 9 12.8 39.4 19.6 49.7-11.8 71.4-215.5 144.8-417.8 213.3-599.1 28.4-6.2 79.6-18.6 110.9-65.3 55.7-82.9 71.7-66.1 85.1-91.3 16.8-31.7 5.6-61.4-53.8-54 0 0-22.4 1.6-63.9 6.3 65.9-169.6 123.5-313.4 165-423 14.4-37.1 16.2-64.2-6.9-69.7"/><path id="path45129" class="st0" d="M5233.4 1668.8c15.3 38.8 63.3 27 45-19.8-18.6-47.7-64.7-191.1-76.8-237.3-16.5-62.3 54.9-45.2 18.7-4.5-31 35-51.7 49-109 115.6-55.4 64.3-40.4 147.7 18.9 166.1 66.8 20.8 125.8-52.9 162.2-106.9 35.4-52.3 1.1-83-34.5-52.1-22.9 19.9-49.4 50.4-76.2 66.9-21.8 13.3-38.9-1-9.8-41 33.7-46.3 71.5-85.1 99.6-128.9 57.3-89.2-56-140.6-104.8-82.7-26.2 30.9-19.5 61.2-12.4 87.2 11.5 41.8 54.1 174.8 79.1 237.4"/></g></g></svg>